<?xml version="1.0" encoding="iso-8859-1"?>
<!-- Generator: Adobe Illustrator 18.1.1, SVG Export Plug-In . SVG Version: 6.00 Build 0)  -->
<svg version="1.1" id="Capa_1" xmlns="http://www.w3.org/2000/svg" xmlns:xlink="http://www.w3.org/1999/xlink" x="0px" y="0px"
	 viewBox="0 0 53.404 53.404" style="enable-background:new 0 0 53.404 53.404;" xml:space="preserve">
<g>
	<path style="fill:#666666;" d="M47.496,15.112h-6.021c-1.755,0-3.182-1.427-3.182-3.181V5.909c0-3.258-2.65-5.909-5.908-5.909
		H21.021c-3.258,0-5.908,2.651-5.908,5.909v6.022c0,1.754-1.427,3.181-3.182,3.181H5.909c-3.258,0-5.908,2.651-5.908,5.909v11.362
		c0,3.258,2.65,5.909,5.908,5.909h6.022c1.755,0,3.182,1.427,3.182,3.181v6.022c0,3.258,2.65,5.909,5.908,5.909h11.363
		c3.258,0,5.908-2.651,5.908-5.909v-6.022c0-1.754,1.427-3.181,3.182-3.181h6.021c3.258,0,5.908-2.651,5.908-5.909V21.021
		C53.404,17.763,50.754,15.112,47.496,15.112z M50.677,32.383c0,1.754-1.428,3.182-3.182,3.182h-6.021
		c-3.258,0-5.909,2.65-5.909,5.908v6.022c0,1.754-1.427,3.182-3.181,3.182H21.021c-1.754,0-3.181-1.427-3.181-3.182v-6.022
		c0-3.258-2.651-5.908-5.909-5.908H5.909c-1.754,0-3.182-1.428-3.182-3.182V21.021c0-1.754,1.428-3.182,3.182-3.182h6.022
		c3.258,0,5.909-2.65,5.909-5.908V5.909c0-1.754,1.427-3.182,3.181-3.182h11.363c1.754,0,3.181,1.427,3.181,3.182v6.022
		c0,3.258,2.651,5.908,5.909,5.908h6.021c1.754,0,3.182,1.428,3.182,3.182C50.677,21.021,50.677,32.383,50.677,32.383z"/>
</g>
<g>
</g>
<g>
</g>
<g>
</g>
<g>
</g>
<g>
</g>
<g>
</g>
<g>
</g>
<g>
</g>
<g>
</g>
<g>
</g>
<g>
</g>
<g>
</g>
<g>
</g>
<g>
</g>
<g>
</g>
</svg>
